<svg width="11" height="16" viewBox="0 0 11 16" fill="none" xmlns="http://www.w3.org/2000/svg">
<path d="M3.5 12C3.29167 12 3.09635 11.9609 2.91406 11.8828C2.73177 11.8047 2.57292 11.6979 2.4375 11.5625C2.30208 11.4271 2.19531 11.2682 2.11719 11.0859C2.03906 10.9036 2 10.7083 2 10.5V1.5C2 1.29167 2.03906 1.09635 2.11719 0.914062C2.19531 0.731771 2.30208 0.572917 2.4375 0.4375C2.57292 0.302083 2.73177 0.195312 2.91406 0.117188C3.09635 0.0390625 3.29167 0 3.5 0H7.5C7.70833 0 7.90365 0.0390625 8.08594 0.117188C8.26823 0.195312 8.42708 0.302083 8.5625 0.4375C8.69792 0.572917 8.80469 0.731771 8.88281 0.914062C8.96094 1.09635 9 1.29167 9 1.5V10.5C9 10.7083 8.96094 10.9036 8.88281 11.0859C8.80469 11.2682 8.69792 11.4271 8.5625 11.5625C8.42708 11.6979 8.26823 11.8047 8.08594 11.8828C7.90365 11.9609 7.70833 12 7.5 12H3.5ZM3 10.5C3 10.6354 3.04948 10.7526 3.14844 10.8516C3.2474 10.9505 3.36458 11 3.5 11H7.5C7.63542 11 7.7526 10.9505 7.85156 10.8516C7.95052 10.7526 8 10.6354 8 10.5V1.5C8 1.36458 7.95052 1.2474 7.85156 1.14844C7.7526 1.04948 7.63542 1 7.5 1H3.5C3.36458 1 3.2474 1.04948 3.14844 1.14844C3.04948 1.2474 3 1.36458 3 1.5V10.5ZM11 8V10.8281C11 11.2656 10.9167 11.6771 10.75 12.0625C10.5833 12.4479 10.3568 12.7839 10.0703 13.0703C9.78385 13.3568 9.44792 13.5833 9.0625 13.75C8.67708 13.9167 8.26562 14 7.82812 14H6V15H8V16H3V15H5V14H3.17188C2.73438 14 2.32292 13.9167 1.9375 13.75C1.55208 13.5833 1.21615 13.3568 0.929688 13.0703C0.643229 12.7839 0.416667 12.4479 0.25 12.0625C0.0833333 11.6771 0 11.2656 0 10.8281V8H1V10.8281C1 11.125 1.05729 11.4062 1.17188 11.6719C1.28646 11.9375 1.4401 12.1693 1.63281 12.3672C1.83073 12.5599 2.0625 12.7135 2.32812 12.8281C2.59375 12.9427 2.875 13 3.17188 13H7.82812C8.125 13 8.40625 12.9427 8.67188 12.8281C8.9375 12.7135 9.16667 12.5599 9.35938 12.3672C9.55729 12.1693 9.71354 11.9375 9.82812 11.6719C9.94271 11.4062 10 11.125 10 10.8281V8H11Z" fill="#0078D4"/>
</svg>
