<svg width="13" height="18" viewBox="0 0 13 18" fill="none" xmlns="http://www.w3.org/2000/svg">
<path d="M6.24597 15C6.93632 15 7.49597 15.5596 7.49597 16.25C7.49597 16.9404 6.93632 17.5 6.24597 17.5C5.55561 17.5 4.99597 16.9404 4.99597 16.25C4.99597 15.5596 5.55561 15 6.24597 15ZM6.24597 10C6.93632 10 7.49597 10.5596 7.49597 11.25C7.49597 11.9404 6.93632 12.5 6.24597 12.5C5.55561 12.5 4.99597 11.9404 4.99597 11.25C4.99597 10.5596 5.55561 10 6.24597 10ZM11.2419 10C11.9323 10 12.4919 10.5596 12.4919 11.25C12.4919 11.9404 11.9323 12.5 11.2419 12.5C10.5516 12.5 9.99193 11.9404 9.99193 11.25C9.99193 10.5596 10.5516 10 11.2419 10ZM1.25 10C1.94036 10 2.5 10.5596 2.5 11.25C2.5 11.9404 1.94036 12.5 1.25 12.5C0.559644 12.5 0 11.9404 0 11.25C0 10.5596 0.559644 10 1.25 10ZM6.24597 5C6.93632 5 7.49597 5.55964 7.49597 6.25C7.49597 6.94036 6.93632 7.5 6.24597 7.5C5.55561 7.5 4.99597 6.94036 4.99597 6.25C4.99597 5.55964 5.55561 5 6.24597 5ZM11.2419 5C11.9323 5 12.4919 5.55964 12.4919 6.25C12.4919 6.94036 11.9323 7.5 11.2419 7.5C10.5516 7.5 9.99193 6.94036 9.99193 6.25C9.99193 5.55964 10.5516 5 11.2419 5ZM1.25 5C1.94036 5 2.5 5.55964 2.5 6.25C2.5 6.94036 1.94036 7.5 1.25 7.5C0.559644 7.5 0 6.94036 0 6.25C0 5.55964 0.559644 5 1.25 5ZM6.24597 0C6.93632 0 7.49597 0.559644 7.49597 1.25C7.49597 1.94036 6.93632 2.5 6.24597 2.5C5.55561 2.5 4.99597 1.94036 4.99597 1.25C4.99597 0.559644 5.55561 0 6.24597 0ZM11.2419 0C11.9323 0 12.4919 0.559644 12.4919 1.25C12.4919 1.94036 11.9323 2.5 11.2419 2.5C10.5516 2.5 9.99193 1.94036 9.99193 1.25C9.99193 0.559644 10.5516 0 11.2419 0ZM1.25 0C1.94036 0 2.5 0.559644 2.5 1.25C2.5 1.94036 1.94036 2.5 1.25 2.5C0.559644 2.5 0 1.94036 0 1.25C0 0.559644 0.559644 0 1.25 0Z" fill="#0078D4"/>
</svg>
