<svg width="40" height="30" viewBox="0 0 40 30" fill="none" xmlns="http://www.w3.org/2000/svg">
<path fill-rule="evenodd" clip-rule="evenodd" d="M36 10.9811V26.625C36 28.4288 34.5849 29.9021 32.8042 29.9953L32.625 30H3.375C1.57117 30 0.0978546 28.5849 0.00468445 26.8042L0 26.625V6.375C0 4.57117 1.41513 3.09785 3.19576 3.00468L3.375 3H11.7546C12.504 3 13.23 3.24933 13.8197 3.70554L13.9771 3.83505L16.3046 5.87165C16.4755 6.02119 16.6868 6.11479 16.9102 6.14185L17.0454 6.15H29.2113C29.4272 6.9754 29.8014 7.73679 30.2994 8.39985L16.9627 8.39899L15.0484 10.7533C14.4503 11.4894 13.5722 11.9375 12.6315 11.9939L12.4291 12L2.25 11.9991V26.625C2.25 27.2075 2.69269 27.6866 3.25998 27.7442L3.375 27.75H32.625C33.2075 27.75 33.6866 27.3073 33.7442 26.74L33.75 26.625V10.7617C34.3068 10.917 34.8937 11 35.5 11C35.6682 11 35.835 10.9936 36 10.9811ZM3.375 5.25H11.7546L11.8898 5.25816C12.1132 5.28521 12.3245 5.37881 12.4954 5.52835L14.7735 7.5225L13.3022 9.33442L13.2172 9.42776C13.0081 9.63312 12.7255 9.75 12.4291 9.75L2.25 9.7491V6.375L2.25581 6.25998C2.31342 5.69269 2.79251 5.25 3.375 5.25Z" fill="black"/>
<circle cx="35.5" cy="4.5" r="4.5" fill="#0078D4"/>
</svg>
