<svg width="32" height="25" viewBox="0 0 32 25" fill="none" xmlns="http://www.w3.org/2000/svg">
<path fill-rule="evenodd" clip-rule="evenodd" d="M21.0744 3.5133C20.5016 2.6041 19.4888 2 18.3348 2H10.4257C8.63873 2 7.19012 3.44861 7.19012 5.23555V6.3103H3.23555C1.44861 6.3103 0 7.7589 0 9.54585V21.7644C0 23.5514 1.44861 25 3.23556 25H25.5249C27.3119 25 28.7605 23.5514 28.7605 21.7644V10.8779C28.3527 10.958 27.9313 11 27.5 11C27.1958 11 26.8965 10.9791 26.6035 10.9387V12.7814H22.2894V11.7029C22.2894 11.1072 21.8065 10.6244 21.2109 10.6244C20.6152 10.6244 20.1323 11.1072 20.1323 11.7029V12.7814H8.62815V11.7029C8.62815 11.1072 8.14528 10.6244 7.54963 10.6244C6.95398 10.6244 6.47111 11.1072 6.47111 11.7029V12.7814H2.15704V9.54585C2.15704 8.9502 2.6399 8.46734 3.23555 8.46734H7.19012V8.47111H9.34716V8.46734H19.4133V8.47111H21.5704V8.46734H22.3508C21.5038 7.36968 21 5.99367 21 4.5C21 4.16456 21.0254 3.83506 21.0744 3.5133ZM9.34716 5.23555C9.34716 4.63991 9.83003 4.15704 10.4257 4.15704H18.3348C18.9305 4.15704 19.4133 4.63991 19.4133 5.23555V6.3103H9.34716V5.23555ZM20.1323 16.736V14.9384H8.62815V16.736C8.62815 17.3316 8.14528 17.8145 7.54963 17.8145C6.95398 17.8145 6.47111 17.3316 6.47111 16.736V14.9384H2.15704V21.7644C2.15704 22.3601 2.63991 22.843 3.23556 22.843H25.5249C26.1206 22.843 26.6035 22.3601 26.6035 21.7644V14.9384H22.2894V16.736C22.2894 17.3316 21.8065 17.8145 21.2109 17.8145C20.6152 17.8145 20.1323 17.3316 20.1323 16.736Z" fill="black"/>
<circle cx="27.5" cy="4.5" r="4.5" fill="#0078D4"/>
</svg>
