<svg width="31" height="32" viewBox="0 0 31 32" fill="none" xmlns="http://www.w3.org/2000/svg">
<path d="M15.5 10C12.1503 10 9.43478 12.6863 9.43478 16C9.43478 19.3137 12.1503 22 15.5 22C17.318 22 18.9491 21.2088 20.0608 19.9554C20.9974 18.8994 21.5652 17.5153 21.5652 16C21.5652 15.3867 21.4722 14.795 21.2994 14.2377C20.5384 11.784 18.2298 10 15.5 10ZM11.4565 16C11.4565 13.7909 13.2668 12 15.5 12C17.7332 12 19.5435 13.7909 19.5435 16C19.5435 18.2091 17.7332 20 15.5 20C13.2668 20 11.4565 18.2091 11.4565 16Z" fill="black"/>
<path d="M25.8908 27.1929L23.5624 26.1818C22.8963 25.8929 22.1139 25.9352 21.4844 26.2958C20.8548 26.6564 20.4533 27.2923 20.3733 28.0087L20.0933 30.514C20.0356 31.0306 19.6567 31.4556 19.1466 31.5759C16.7484 32.1414 14.2499 32.1414 11.8518 31.5759C11.3416 31.4556 10.9627 31.0306 10.905 30.514L10.6255 28.0124C10.5434 27.2974 10.1238 26.6634 9.49479 26.304C8.86578 25.9447 8.10202 25.9025 7.4381 26.1898L5.10921 27.2011C4.62683 27.4106 4.06361 27.2957 3.70391 26.9144C2.02813 25.1381 0.780715 23.0081 0.0555509 20.6848C-0.100641 20.1844 0.0798242 19.6409 0.505301 19.3302L2.56382 17.827C3.15016 17.4 3.49645 16.7219 3.49645 16.0008C3.49645 15.2796 3.15016 14.6015 2.56306 14.174L0.505823 12.6734C0.0797153 12.3626 -0.100916 11.8183 0.0558269 11.3175C0.782246 8.99637 2.03032 6.86876 3.70614 5.09477C4.06618 4.71363 4.62968 4.59914 5.11198 4.80914L7.43051 5.81864C8.09764 6.10883 8.8646 6.06499 9.49701 5.69879C10.1267 5.33677 10.5459 4.70027 10.6268 3.98383L10.9084 1.48015C10.9672 0.957295 11.3548 0.529299 11.8729 0.415086C13.0605 0.153305 14.2722 0.014201 15.5176 0C16.7328 0.0138823 17.9433 0.153046 19.1294 0.415243C19.6472 0.5297 20.0345 0.957559 20.0933 1.48015L20.375 3.98575C20.5026 5.13619 21.4826 6.00755 22.6509 6.00876C22.9649 6.00925 23.2756 5.94443 23.5658 5.81718L25.8847 4.80749C26.367 4.5975 26.9305 4.71198 27.2906 5.09313C28.9664 6.86712 30.2144 8.99473 30.9409 11.3159C31.0975 11.8164 30.9172 12.3603 30.4916 12.6712L28.4362 14.1729C27.8498 14.5999 27.4957 15.278 27.4957 15.9991C27.4957 16.7203 27.8498 17.3984 28.4375 17.8263L30.4947 19.3285C30.9204 19.6394 31.1008 20.1834 30.9442 20.684C30.218 23.0048 28.9707 25.1322 27.2958 26.9065C26.9361 27.2876 26.373 27.4023 25.8908 27.1929ZM18.5501 26.9287C18.8672 25.9579 19.5285 25.105 20.4713 24.565C21.6598 23.8842 23.1201 23.8062 24.3742 24.3501L26.1857 25.1368C27.3487 23.805 28.2495 22.2684 28.841 20.6068L27.2389 19.437L27.2377 19.4361C26.1451 18.6399 25.4739 17.3701 25.4739 15.9991C25.4739 14.6291 26.1443 13.3593 27.2359 12.5635L27.2376 12.5623L28.8377 11.3933C28.246 9.73165 27.3449 8.19507 26.1813 6.86352L24.3851 7.64558L24.382 7.64695C23.8355 7.88609 23.2462 8.00954 22.6488 8.00876C20.4485 8.00596 18.6062 6.36567 18.3656 4.20612L18.3654 4.2038L18.1464 2.25731C17.2794 2.09763 16.4 2.01155 15.5176 2.00015C14.609 2.0118 13.7237 2.09815 12.8552 2.25763L12.6361 4.20594C12.4842 5.55021 11.6982 6.74537 10.5156 7.4264C9.32611 8.11405 7.8774 8.19783 6.61606 7.64918L4.81542 6.86516C3.65192 8.1966 2.7508 9.73303 2.15917 11.3945L3.76287 12.5643C4.86721 13.3691 5.51819 14.6449 5.51819 16.0008C5.51819 17.3563 4.86757 18.6322 3.76363 19.4368L2.15869 20.6087C2.74959 22.2725 3.65058 23.8113 4.8145 25.1449L6.62783 24.3575C7.88134 23.815 9.3212 23.8953 10.5059 24.5721C11.691 25.2492 12.48 26.4426 12.6343 27.7866L12.635 27.7926L12.8531 29.7449C14.6004 30.085 16.3979 30.085 18.1452 29.7449L18.3638 27.7889C18.3965 27.4955 18.4592 27.2073 18.5501 26.9287Z" fill="black"/>
</svg>
