<svg width="24" height="24" viewBox="0 0 24 24" fill="none" xmlns="http://www.w3.org/2000/svg">
<path d="M9.5 0C14.7467 0 19 4.25329 19 9.5C19 11.5819 18.3303 13.5074 17.1946 15.0729L23.5607 21.4393C24.1464 22.0251 24.1464 22.9749 23.5607 23.5607C23.0115 24.1098 22.1424 24.1442 21.5533 23.6636L21.4393 23.5607L15.0729 17.1946C13.5074 18.3303 11.5819 19 9.5 19C4.25329 19 0 14.7467 0 9.5C0 4.25329 4.25329 0 9.5 0ZM9.5 3C5.91015 3 3 5.91015 3 9.5C3 13.0899 5.91015 16 9.5 16C13.0899 16 16 13.0899 16 9.5C16 5.91015 13.0899 3 9.5 3Z" fill="black"/>
</svg>
