<svg width="30" height="30" viewBox="0 0 30 30" fill="none" xmlns="http://www.w3.org/2000/svg">
<path d="M25.4167 0C27.948 0 30 2.05203 30 4.58333V25.4167C30 27.948 27.948 30 25.4167 30H4.58333C2.05203 30 0 27.948 0 25.4167V4.58333C0 2.05203 2.05203 0 4.58333 0H25.4167ZM25.4167 2.5H4.58333C3.43274 2.5 2.5 3.43274 2.5 4.58333V25.4167C2.5 26.5673 3.43274 27.5 4.58333 27.5H25.4167C26.5673 27.5 27.5 26.5673 27.5 25.4167V4.58333C27.5 3.43274 26.5673 2.5 25.4167 2.5ZM11.6667 19.0656L22.4494 8.28278C22.9376 7.79463 23.7291 7.79463 24.2172 8.28278C24.661 8.72656 24.7013 9.421 24.3382 9.91035L24.2172 10.0505L12.5505 21.7172C12.1068 22.161 11.4123 22.2013 10.923 21.8382L10.7828 21.7172L5.78278 16.7172C5.29463 16.2291 5.29463 15.4376 5.78278 14.9495C6.22656 14.5057 6.921 14.4653 7.41035 14.8284L7.55055 14.9495L11.6667 19.0656L22.4494 8.28278L11.6667 19.0656Z" fill="black"/>
</svg>
