<svg width="37" height="28" viewBox="0 0 37 28" fill="none" xmlns="http://www.w3.org/2000/svg">
<path d="M24.678 1.99994C24.3135 2.767 24.0845 3.61086 24.0218 4.50061L5.25429 4.5C3.73551 4.5 2.50429 5.73122 2.50429 7.25L2.504 7.842L17.0043 16.5423L26.8501 10.6346C27.6663 11.2374 28.6181 11.667 29.6513 11.8694L17.6474 19.0719C17.2955 19.283 16.8657 19.3064 16.4965 19.1422L16.3612 19.0719L2.504 10.757L2.50429 23.75C2.50429 24.7165 3.28779 25.5 4.25429 25.5H29.7543C30.7208 25.5 31.5043 24.7165 31.5043 23.75L31.5037 11.9825C32.3937 11.9197 33.2378 11.6906 34.005 11.326L34.0043 23.75C34.0043 26.0972 32.1015 28 29.7543 28H4.25429C1.90708 28 0.00428918 26.0972 0.00428918 23.75L0.0031853 8.63556C-0.000757213 8.5804 -0.0010569 8.52485 0.00238087 8.46929L0.00428918 7.25C0.00428918 4.3505 2.35479 1.99994 5.25429 1.99994H24.678ZM31.0043 0C33.7657 0 36.0043 2.23858 36.0043 5C36.0043 7.76142 33.7657 10 31.0043 10C28.2429 10 26.0043 7.76142 26.0043 5C26.0043 2.23858 28.2429 0 31.0043 0Z" fill="black"/>
<circle cx="31" cy="5" r="5" fill="#0078D4"/>
</svg>
