<svg width="37" height="31" viewBox="0 0 37 31" fill="none" xmlns="http://www.w3.org/2000/svg">
<path fill-rule="evenodd" clip-rule="evenodd" d="M32.9964 10.9813L33 11.0875V26.6125C33 28.9521 31.1349 30.864 28.7848 30.9931L28.5312 31H4.46875C2.08583 31 0.138537 29.1688 0.00707415 26.8615L0 26.6125V7.0375C0 5.42983 1.2721 4.11388 2.88193 4.00701L3.09375 4H24.4062C24.9894 4 25.5348 4.15839 26.0003 4.43373C26.0001 4.45579 26 4.47788 26 4.5C26 6.86692 27.2651 8.93836 29.156 10.075H27.5V24.5875C27.5 25.1001 27.112 25.5237 26.6087 25.5908L26.4688 25.6C25.9467 25.6 25.5152 25.2191 25.4469 24.7249L25.4375 24.5875V7.0375C25.4375 6.52491 25.0495 6.10129 24.5462 6.03424L24.4062 6.025H3.09375C2.57167 6.025 2.1402 6.40591 2.07191 6.90011L2.0625 7.0375V26.6125C2.0625 27.852 3.03478 28.8686 4.2714 28.9672L4.46875 28.975H28.5312C29.7937 28.975 30.8291 28.0204 30.9295 26.8063L30.9375 26.6125V11.0875C30.9375 10.9878 30.9228 10.8915 30.8955 10.8005C31.4087 10.9308 31.9463 11 32.5 11C32.667 11 32.8325 10.9937 32.9964 10.9813ZM13.0577 17.8422C13.0577 16.9102 12.2882 16.1547 11.339 16.1547H6.53125C5.58201 16.1547 4.8125 16.9102 4.8125 17.8422V22.5625C4.8125 23.4945 5.58201 24.25 6.53125 24.25H11.339C12.2882 24.25 13.0577 23.4945 13.0577 22.5625V17.8422ZM21.651 22.225H16.8438L16.7038 22.2342C16.2005 22.3013 15.8125 22.7249 15.8125 23.2375C15.8125 23.7967 16.2742 24.25 16.8438 24.25H21.651L21.7909 24.2408C22.2943 24.1737 22.6822 23.7501 22.6822 23.2375C22.6822 22.6783 22.2205 22.225 21.651 22.225ZM6.875 18.1797H10.9952V22.225H6.875V18.1797ZM21.651 16.1547H16.8438L16.7038 16.1639C16.2005 16.231 15.8125 16.6546 15.8125 17.1672C15.8125 17.7264 16.2742 18.1797 16.8438 18.1797H21.651L21.7909 18.1704C22.2943 18.1034 22.6822 17.6798 22.6822 17.1672C22.6822 16.608 22.2205 16.1547 21.651 16.1547ZM21.651 10.0705H5.83879L5.69886 10.0797C5.19551 10.1468 4.80754 10.5704 4.80754 11.083C4.80754 11.6422 5.26925 12.0955 5.83879 12.0955H21.651L21.7909 12.0862C22.2943 12.0192 22.6822 11.5956 22.6822 11.083C22.6822 10.5238 22.2205 10.0705 21.651 10.0705Z" fill="black"/>
<circle cx="32.5" cy="4.5" r="4.5" fill="#0078D4"/>
</svg>
