<svg width="31" height="31" viewBox="0 0 31 31" fill="none" xmlns="http://www.w3.org/2000/svg">
<path d="M26.4205 0C28.9497 0 31 2.05033 31 4.57955V26.4205C31 28.9497 28.9497 31 26.4205 31H4.57955C2.05033 31 0 28.9497 0 26.4205V4.57955C0 2.05033 2.05033 0 4.57955 0H26.4205ZM28.8864 9.16332H2.11364V26.4205C2.11364 27.7823 3.21766 28.8864 4.57955 28.8864H26.4205C27.7823 28.8864 28.8864 27.7823 28.8864 26.4205V9.16332ZM19.719 13.0121C20.8474 13.0121 21.7418 13.3121 22.4023 13.912C23.0629 14.512 23.3931 15.3239 23.3931 16.3477C23.3931 16.9366 23.2417 17.4609 22.939 17.9205C22.6363 18.3801 22.2235 18.742 21.7006 19.0062C22.328 19.2979 22.811 19.697 23.1495 20.2034C23.4881 20.7098 23.6573 21.2822 23.6573 21.9207C23.6573 22.9775 23.2995 23.8156 22.584 24.4348C21.8684 25.054 20.9162 25.3636 19.7273 25.3636C18.5328 25.3636 17.5765 25.0526 16.8582 24.4307C16.1399 23.8087 15.7807 22.972 15.7807 21.9207C15.7807 21.2767 15.9513 20.6988 16.2926 20.1869C16.6339 19.675 17.1127 19.2814 17.7292 19.0062C17.2118 18.742 16.8031 18.3801 16.5032 17.9205C16.2032 17.4609 16.0532 16.9366 16.0532 16.3477C16.0532 15.3239 16.3834 14.512 17.0439 13.912C17.7045 13.3121 18.5961 13.0121 19.719 13.0121ZM12.6306 13.1359V25.1985H10.6326V15.5468L7.68505 16.5541V14.8615L12.3747 13.1359H12.6306ZM19.7108 19.8319C19.1273 19.8319 18.6608 20.0135 18.3113 20.3768C17.9618 20.7401 17.787 21.2217 17.787 21.8216C17.787 22.4106 17.959 22.8812 18.303 23.2335C18.6471 23.5858 19.1218 23.7619 19.7273 23.7619C20.3327 23.7619 20.8047 23.5913 21.1432 23.25C21.4818 22.9087 21.651 22.4326 21.651 21.8216C21.651 21.2272 21.4735 20.7469 21.1185 20.3809C20.7634 20.0149 20.2942 19.8319 19.7108 19.8319ZM19.719 14.6221C19.2071 14.6221 18.8026 14.7831 18.5053 15.1051C18.2081 15.4271 18.0595 15.866 18.0595 16.422C18.0595 16.9724 18.2095 17.41 18.5095 17.7347C18.8094 18.0595 19.2154 18.2219 19.7273 18.2219C20.2392 18.2219 20.6451 18.0595 20.9451 17.7347C21.2451 17.41 21.3951 16.9724 21.3951 16.422C21.3951 15.8991 21.2437 15.4684 20.941 15.1298C20.6382 14.7913 20.2309 14.6221 19.719 14.6221ZM26.4205 2.11364H4.57955C3.21766 2.11364 2.11364 3.21766 2.11364 4.57955V7.04968H28.8864V4.57955C28.8864 3.21766 27.7823 2.11364 26.4205 2.11364Z" fill="black"/>
</svg>
